<svg id="visual" viewBox="0 0 960 540" width="960" height="540" xmlns="http://www.w3.org/2000/svg" xmlns:xlink="http://www.w3.org/1999/xlink" version="1.1"><rect x="0" y="0" width="960" height="540" fill="#f9fafb"></rect><path d="M0 343L22.8 338.8C45.7 334.7 91.3 326.3 137 324.3C182.7 322.3 228.3 326.7 274 329.2C319.7 331.7 365.3 332.3 411.2 332.3C457 332.3 503 331.7 548.8 332.2C594.7 332.7 640.3 334.3 686 345C731.7 355.7 777.3 375.3 823 380.8C868.7 386.3 914.3 377.7 937.2 373.3L960 369L960 541L937.2 541C914.3 541 868.7 541 823 541C777.3 541 731.7 541 686 541C640.3 541 594.7 541 548.8 541C503 541 457 541 411.2 541C365.3 541 319.7 541 274 541C228.3 541 182.7 541 137 541C91.3 541 45.7 541 22.8 541L0 541Z" fill="#fde68a"></path><path d="M0 363L22.8 362.7C45.7 362.3 91.3 361.7 137 371.2C182.7 380.7 228.3 400.3 274 411.2C319.7 422 365.3 424 411.2 425.5C457 427 503 428 548.8 423.8C594.7 419.7 640.3 410.3 686 407.8C731.7 405.3 777.3 409.7 823 405.3C868.7 401 914.3 388 937.2 381.5L960 375L960 541L937.2 541C914.3 541 868.7 541 823 541C777.3 541 731.7 541 686 541C640.3 541 594.7 541 548.8 541C503 541 457 541 411.2 541C365.3 541 319.7 541 274 541C228.3 541 182.7 541 137 541C91.3 541 45.7 541 22.8 541L0 541Z" fill="#fcc366"></path><path d="M0 444L22.8 438.7C45.7 433.3 91.3 422.7 137 417C182.7 411.3 228.3 410.7 274 415.2C319.7 419.7 365.3 429.3 411.2 426.8C457 424.3 503 409.7 548.8 404.3C594.7 399 640.3 403 686 407.8C731.7 412.7 777.3 418.3 823 419.2C868.7 420 914.3 416 937.2 414L960 412L960 541L937.2 541C914.3 541 868.7 541 823 541C777.3 541 731.7 541 686 541C640.3 541 594.7 541 548.8 541C503 541 457 541 411.2 541C365.3 541 319.7 541 274 541C228.3 541 182.7 541 137 541C91.3 541 45.7 541 22.8 541L0 541Z" fill="#fb9e4e"></path><path d="M0 480L22.8 480.5C45.7 481 91.3 482 137 476.7C182.7 471.3 228.3 459.7 274 452.8C319.7 446 365.3 444 411.2 441.3C457 438.7 503 435.3 548.8 434.2C594.7 433 640.3 434 686 439.3C731.7 444.7 777.3 454.3 823 454.3C868.7 454.3 914.3 444.7 937.2 439.8L960 435L960 541L937.2 541C914.3 541 868.7 541 823 541C777.3 541 731.7 541 686 541C640.3 541 594.7 541 548.8 541C503 541 457 541 411.2 541C365.3 541 319.7 541 274 541C228.3 541 182.7 541 137 541C91.3 541 45.7 541 22.8 541L0 541Z" fill="#f77543"></path><path d="M0 481L22.8 483.7C45.7 486.3 91.3 491.7 137 494.3C182.7 497 228.3 497 274 500.2C319.7 503.3 365.3 509.7 411.2 507.8C457 506 503 496 548.8 491C594.7 486 640.3 486 686 489.7C731.7 493.3 777.3 500.7 823 504.8C868.7 509 914.3 510 937.2 510.5L960 511L960 541L937.2 541C914.3 541 868.7 541 823 541C777.3 541 731.7 541 686 541C640.3 541 594.7 541 548.8 541C503 541 457 541 411.2 541C365.3 541 319.7 541 274 541C228.3 541 182.7 541 137 541C91.3 541 45.7 541 22.8 541L0 541Z" fill="#ef4444"></path></svg>